<?xml version="1.0" encoding="utf-8"?>
<!-- Generator: Adobe Illustrator 27.5.0, SVG Export Plug-In . SVG Version: 6.00 Build 0)  -->
<svg version="1.1" xmlns="http://www.w3.org/2000/svg" xmlns:xlink="http://www.w3.org/1999/xlink" x="0px" y="0px"
	 viewBox="0 0 500 500" style="enable-background:new 0 0 500 500;" xml:space="preserve">
<g id="Background">
	<rect y="0" style="fill:#FAFAFA;" width="500" height="500"/>
</g>
<g id="Object">
	<g>
		<defs>
			<rect id="SVGID_1_" y="0" width="500" height="500"/>
		</defs>
		<clipPath id="SVGID_00000149382154692221585220000018404126720479809715_">
			<use xlink:href="#SVGID_1_"  style="overflow:visible;"/>
		</clipPath>
		
			<rect y="0" style="clip-path:url(#SVGID_00000149382154692221585220000018404126720479809715_);fill:#E5E5E7;" width="500" height="500"/>
		<g style="clip-path:url(#SVGID_00000149382154692221585220000018404126720479809715_);">
			<polygon style="fill:#CACACC;" points="482.514,0 434.545,0 427.043,26.447 471.36,37.864 			"/>
			<polygon style="fill:#CACACC;" points="492.939,0 481.049,40.36 500,45.242 500,0 			"/>
			<polygon style="fill:#CACACC;" points="455.751,126.234 500,140.96 500,76.636 472.453,69.539 			"/>
			<polygon style="fill:#CACACC;" points="462.764,67.043 418.745,55.703 402.434,113.203 446.126,123.519 			"/>
			<polygon style="fill:#CACACC;" points="355.367,466.987 345.641,500 424.137,500 401.265,481.989 			"/>
			<path style="fill:#CACACC;" d="M223.975,500h63.665l-60.013-20.107C226.326,487.063,225.1,493.813,223.975,500z"/>
			<polygon style="fill:#CACACC;" points="455.146,331.06 500,343.024 500,274.25 467.017,265.294 			"/>
			<polygon style="fill:#CACACC;" points="418.653,252.162 399.762,316.288 447.39,328.991 459.268,263.19 			"/>
			<path style="fill:#CACACC;" d="M116.187,500h97.625c1.277-7.023,2.7-14.859,4.235-23.316l-72.873-24.415L116.187,500z"/>
			<polygon style="fill:#CACACC;" points="24.976,371.436 0,416.58 0,496.234 51.209,419.285 			"/>
			<polygon style="fill:#CACACC;" points="58.25,423.145 7.103,500 106.827,500 137.398,449.663 			"/>
			<path style="fill:#CACACC;" d="M0,58.929l32.007,22.938l30.137,10.804l7.26-18.149c0.557-7.113,1.081-13.769,1.573-20.01
				L0,47.448V58.929z"/>
			<path style="fill:#CACACC;" d="M75.354,0H0v39.408l71.607,7.127C73.174,26.761,74.397,11.611,75.354,0z"/>
			<polygon style="fill:#CACACC;" points="0,209.122 60.241,225.315 75.738,185.174 0,168.118 			"/>
			<polygon style="fill:#CACACC;" points="93.917,138.084 54.346,127.162 0,112.807 0,159.917 78.65,177.63 			"/>
			<path style="fill:#CACACC;" d="M79.639,71.91l35.583,9.459l9.521-39.095l-42.423-4.223C81.389,49.7,80.467,61.363,79.639,71.91z"
				/>
			<path style="fill:#CACACC;" d="M135.037,0H85.394c-0.758,9.228-1.592,19.539-2.437,30.075l43.697,4.349L135.037,0z"/>
			<polygon style="fill:#CACACC;" points="45.663,273.602 0,261.426 0,320.037 29.866,326.99 			"/>
			<polygon style="fill:#CACACC;" points="0,395.923 20.356,359.13 27.592,334.674 0,328.25 			"/>
			<polygon style="fill:#CACACC;" points="26.749,90.402 0,71.232 0,102.464 52.662,116.375 58.427,101.962 27.317,90.809 			"/>
		</g>
		<path style="clip-path:url(#SVGID_00000149382154692221585220000018404126720479809715_);fill:#FFFFFF;" d="M623.677,307.831
			l2.621-9.65L525.48,270.806L581.544,93.87c14.98-22.203,37.385-55.331,38.785-57.198l-8-6
			c-2.017,2.688-35.65,52.529-39.479,58.204l-0.404,0.598l-21.669,68.385l-95.027-31.624l49.045-166.483l-9.592-2.826
			l-49.078,166.594l-43.692-10.316l40.705-143.501l-9.621-2.729l-40.927,144.283L284.023,94.605L259.51-42.542l-9.844,1.76
			l25.03,140.039l-1.848,24.016l-147.96-39.334l30.298-124.418l-9.716-2.366L115.222,81.369L79.639,71.91
			c3.363-42.846,8.29-104.141,8.915-107.892c-0.046,0.281-0.115,0.467-0.148,0.567l-9.487-3.161
			c-0.234,0.704-0.856,2.564-9.515,113.098l-7.26,18.149L32.007,81.867L-127.425-32.392l-5.825,8.128l160,114.666l0.568,0.407
			l31.11,11.152l-5.765,14.413l-83.323-22.01l-101.023-63.264l-5.308,8.476l102.31,64.069l89.028,23.516l39.571,10.922
			l-33.675,87.231l-60.531-16.27l-118.68-76.247l-5.405,8.413L-7.86,216.067l-7.562,41.246l61.085,16.289L20.356,359.13
			l-97.069,175.455l8.75,4.842l92.939-167.99l27.243,49.689l165.83,55.56c-6.15,33.881-10.511,57.817-10.817,59.258l4.886,1.064
			l4.884,1.072c0.277-1.259,4.662-25.327,10.627-58.184l103.315,34.615l-8.077,27.417l9.592,2.826l7.973-27.064l71.811,24.06
			l3.178-9.482l-72.161-24.177l12.108-41.101l45.899,15.002l61.303,48.277l6.188-7.855l-62.697-49.375l-47.865-15.645
			l38.742-131.508l214.771,57.287l2.578-9.662l-214.522-57.22l18.891-64.125L623.677,307.831z M547.757,167.393l-31.936,100.79
			l-94.341-25.615l31.444-106.735L547.757,167.393z M443.301,133.108l-31.474,106.839l-42.102-11.432l29.978-105.684
			L443.301,133.108z M360.073,225.895l-83.351-22.631l7.58-98.499l105.539,16.187L360.073,225.895z M248.646,421.585l-9.917-2.914
			c9.887-54.572,20.093-110.999,23.307-128.771l74.263,19.808L299.82,438.311L248.646,421.585z M263.792,280.02l9.9-56.902
			l1.714-9.85l81.939,22.248l-18.316,64.572L263.792,280.02z M268.792,175.979l-161.569-44.596l14.632-37.903l150.212,39.932
			L268.792,175.979z M62.38,119.006l14.945-37.364l34.808,9.253l-14.598,37.814L62.38,119.006z M103.604,140.758l164.407,45.379
			l-1.558,20.245l-12.359,71.039L69.953,227.926L103.604,140.758z M164.52,263.699l-7.74,29.185l-98.623-26.3l8.624-29.157
			L164.52,263.699z M-3.921,250.03l5.522-30.122l55.532,14.927l-8.633,29.174L-3.921,250.03z M163.878,305.126l10.299-38.831
			l78.167,21.011c-6.512,36.008-15.228,84.175-23.263,128.53l-197.87-58.149l24.108-81.51L163.878,305.126z M59.106,412.886
			l-23.907-43.605l192.089,56.448c-2.611,14.407-5.124,28.268-7.436,41.012L59.106,412.886z M333.771,504.909l-104.338-34.957
			c2.357-12.993,4.904-27.038,7.504-41.387l8.674,2.549l100.248,32.765L333.771,504.909z M348.685,454.283l-39.352-12.862
			l36.63-129.134l41.308,11.018L348.685,454.283z M390.097,313.71l-41.405-11.044l18.304-64.529l42.005,11.405L390.097,313.71z"/>
		<path style="clip-path:url(#SVGID_00000149382154692221585220000018404126720479809715_);fill:#C8E67F;" d="M256.917,205.766
			l-8.148,46.84c-1.209,6.95-8.124,11.363-14.937,9.532L95.504,224.956c-6.885-1.851-10.647-9.26-8.08-15.91l18.031-46.705
			c2.221-5.754,8.442-8.887,14.387-7.246l128.565,35.487c5.535,1.528,9.212,6.763,8.772,12.488l-0.12,1.56
			C257.03,205.011,256.983,205.39,256.917,205.766z"/>
		<path style="clip-path:url(#SVGID_00000149382154692221585220000018404126720479809715_);fill:#C8E67F;" d="M532.755,183.287
			l-20.206,63.768c-1.695,5.35-7.307,8.411-12.723,6.941l-56.17-15.251c-5.664-1.538-8.958-7.431-7.299-13.062l19.836-67.333
			c1.674-5.683,7.727-8.846,13.348-6.975l56.539,18.816C531.511,171.999,534.484,177.831,532.755,183.287z"/>
		<g style="clip-path:url(#SVGID_00000149382154692221585220000018404126720479809715_);">
			
				<rect x="357.325" y="-235.234" transform="matrix(0.2495 -0.9684 0.9684 0.2495 237.0683 377.8917)" style="fill:#FFD25C;" width="10" height="542.478"/>
		</g>
		<g style="clip-path:url(#SVGID_00000149382154692221585220000018404126720479809715_);">
			
				<rect x="376.982" y="-251.238" transform="matrix(0.2495 -0.9684 0.9684 0.2495 267.3189 384.9164)" style="fill:#FFD25C;" width="10" height="542.478"/>
		</g>
		<g style="clip-path:url(#SVGID_00000149382154692221585220000018404126720479809715_);">
			<polygon style="fill:#CACACC;" points="389.734,157.978 379.112,195.424 421.596,206.786 432.611,169.398 			"/>
			<polygon style="fill:#CACACC;" points="443.301,133.108 399.703,122.831 390.825,154.13 433.741,165.56 			"/>
			<polygon style="fill:#CACACC;" points="369.725,228.515 411.827,239.947 420.465,210.625 378.02,199.272 			"/>
			<polygon style="fill:#CACACC;" points="357.83,145.341 365.148,117.164 326.417,111.224 320.161,135.308 			"/>
			<polygon style="fill:#CACACC;" points="279.066,172.806 276.722,203.263 296.951,208.756 304.52,179.614 			"/>
			<polygon style="fill:#CACACC;" points="322.443,110.614 284.302,104.764 282.719,125.336 316.296,134.279 			"/>
			<polygon style="fill:#CACACC;" points="315.29,138.15 282.407,129.392 279.378,168.749 305.526,175.743 			"/>
			<polygon style="fill:#CACACC;" points="308.384,180.648 300.811,209.804 338.433,220.019 346.043,190.72 			"/>
			<polygon style="fill:#CACACC;" points="360.689,150.242 350.913,187.882 369.45,192.84 380.069,155.404 			"/>
			<polygon style="fill:#CACACC;" points="381.16,151.555 389.841,120.952 369.122,117.774 361.695,146.371 			"/>
			<polygon style="fill:#CACACC;" points="342.293,221.067 360.073,225.895 368.358,196.688 349.907,191.753 			"/>
			<polygon style="fill:#CACACC;" points="309.39,176.776 347.049,186.848 356.824,149.213 319.155,139.18 			"/>
			<path style="fill:#CACACC;" d="M336.299,309.709L262.036,289.9c-1.007,5.569-2.702,14.937-4.857,26.852l69.407,27.198
				L336.299,309.709z"/>
			<path style="fill:#CACACC;" d="M238.729,418.671l9.917,2.914l51.174,16.726l12.227-43.105l-65.468-19.878
				C244.032,389.396,241.369,404.096,238.729,418.671z"/>
			<path style="fill:#CACACC;" d="M325.489,347.817l-69.036-27.053c-2.59,14.313-5.756,31.809-9.157,50.601l65.843,19.992
				L325.489,347.817z"/>
			<polygon style="fill:#CACACC;" points="273.691,223.117 263.792,280.02 339.028,300.088 357.344,235.516 275.405,213.268 			"/>
			<polygon style="fill:#CACACC;" points="268.792,175.979 272.068,133.412 245.26,126.286 230.036,165.282 			"/>
			<polygon style="fill:#CACACC;" points="183.781,152.515 198.838,113.945 160.198,103.673 145.279,141.887 			"/>
			<polygon style="fill:#CACACC;" points="107.223,131.383 141.402,140.817 156.307,102.638 121.855,93.48 			"/>
			<polygon style="fill:#CACACC;" points="226.159,164.212 241.369,125.252 202.729,114.979 187.657,153.585 			"/>
			<polygon style="fill:#CACACC;" points="112.134,90.896 77.326,81.642 62.38,119.006 97.536,128.709 			"/>
			<polygon style="fill:#CACACC;" points="156.779,292.884 164.52,263.699 106.009,247.972 99.156,277.518 			"/>
			<polygon style="fill:#CACACC;" points="66.779,237.428 58.156,266.584 95.289,276.486 102.144,246.933 			"/>
			<polygon style="fill:#CACACC;" points="57.134,234.835 1.602,219.908 -3.921,250.03 48.501,264.01 			"/>
			<polygon style="fill:#CACACC;" points="93.028,286.233 55.319,276.177 45.305,310.034 84.73,322.005 			"/>
			<polygon style="fill:#CACACC;" points="137.032,342.067 126.887,385.804 170.252,398.547 180.305,355.205 			"/>
			<polygon style="fill:#CACACC;" points="87.661,327.076 77.411,371.264 123.043,384.674 133.196,340.902 			"/>
			<polygon style="fill:#CACACC;" points="134.102,336.996 142.798,299.505 96.895,287.264 88.567,323.17 			"/>
			<polygon style="fill:#CACACC;" points="44.17,313.871 31.211,357.687 73.567,370.134 83.825,325.911 			"/>
			<polygon style="fill:#CACACC;" points="181.211,351.299 199.358,273.064 174.177,266.295 163.878,305.126 146.665,300.536 
				137.938,338.161 			"/>
			<path style="fill:#CACACC;" d="M237.663,368.44c5.296-29.255,10.453-57.757,14.68-81.134l-49.12-13.203l-18.176,78.361
				L237.663,368.44z"/>
			<path style="fill:#CACACC;" d="M174.096,399.677l54.984,16.158c2.583-14.261,5.237-28.914,7.866-43.432l-52.805-16.033
				L174.096,399.677z"/>
			<polygon style="fill:#CACACC;" points="35.199,369.281 59.106,412.886 73.181,417.602 83.238,383.398 			"/>
			<polygon style="fill:#CACACC;" points="87.076,384.526 76.977,418.874 149.339,443.117 158.504,405.516 			"/>
			<path style="fill:#CACACC;" d="M153.145,444.392l66.707,22.349c2.312-12.745,4.825-26.605,7.436-41.012l-64.942-19.084
				L153.145,444.392z"/>
			<path style="fill:#CACACC;" d="M245.61,431.114l-8.674-2.549c-2.6,14.349-5.146,28.394-7.504,41.387l50.242,16.833l15.249-39.553
				L245.61,431.114z"/>
			<polygon style="fill:#CACACC;" points="283.471,488.056 333.771,504.909 345.858,463.879 298.73,448.476 			"/>
			<polygon style="fill:#CACACC;" points="387.27,323.305 345.963,312.286 335.941,347.616 375.537,363.133 			"/>
			<polygon style="fill:#CACACC;" points="322.71,394.262 362.782,406.43 374.402,366.985 334.844,351.483 			"/>
			<polygon style="fill:#CACACC;" points="309.333,441.421 348.685,454.283 361.652,410.267 321.618,398.112 			"/>
			<polygon style="fill:#CACACC;" points="409.001,249.542 366.996,238.137 348.692,302.665 390.097,313.71 			"/>
			<line style="fill:#CACACC;" x1="168.982" y1="75.672" x2="168.982" y2="75.672"/>
			<line style="fill:#CACACC;" x1="171.648" y1="189.091" x2="171.648" y2="189.091"/>
			<line style="fill:#CACACC;" x1="371.46" y1="100.821" x2="371.46" y2="100.821"/>
			<line style="fill:#CACACC;" x1="297.661" y1="213.974" x2="297.661" y2="213.974"/>
			<line style="fill:#CACACC;" x1="203.849" y1="262.554" x2="203.849" y2="262.554"/>
			<line style="fill:#CACACC;" x1="33.261" y1="308.468" x2="33.261" y2="308.468"/>
			<line style="fill:#CACACC;" x1="421.479" y1="383.285" x2="421.479" y2="383.285"/>
			<line style="fill:#CACACC;" x1="86.614" y1="379.005" x2="86.614" y2="379.005"/>
			<line style="fill:#CACACC;" x1="69.953" y1="435.671" x2="69.953" y2="435.672"/>
			<line style="fill:#CACACC;" x1="161.662" y1="401.005" x2="161.662" y2="401.005"/>
			<line style="fill:#CACACC;" x1="146.387" y1="463.672" x2="146.387" y2="463.671"/>
			<line style="fill:#CACACC;" x1="297.925" y1="445.005" x2="297.925" y2="445.005"/>
		</g>
		<path style="clip-path:url(#SVGID_00000149382154692221585220000018404126720479809715_);fill:#84BFFF;" d="M147.876,79.493
			L240.063,104c8.388,2.23,16.742-3.698,17.408-12.351l0,0c0.09-1.172,0.031-2.351-0.176-3.508L244.8,18.235
			c-0.456-2.553-2.677-4.413-5.271-4.413h-76.85c-2.469,0-4.618,1.689-5.203,4.088l-13.428,55.14
			C143.359,75.881,145.06,78.744,147.876,79.493z"/>
		<path style="clip-path:url(#SVGID_00000149382154692221585220000018404126720479809715_);fill:#C8E67F;" d="M389.031,371.167
			l-13.398,45.48c-6.135,20.826,5.399,42.755,26.035,49.5l0,0c4.478,1.464,8.664,3.704,12.365,6.619l14.824,11.674
			c7.078,5.574,15.826,8.605,24.836,8.605h0.605c22.17,0,40.143-17.973,40.143-40.143v-63.254c0-18.186-12.226-34.1-29.797-38.787
			l-26.76-7.138C416.852,338.114,395.182,350.287,389.031,371.167z"/>
		<g style="clip-path:url(#SVGID_00000149382154692221585220000018404126720479809715_);">
			<path style="fill:#E1565E;" d="M169.738,143.451l-8.346-14.455c-4.404-7.628,1.101-17.162,9.908-17.162h0
				c8.807,0,14.312,9.535,9.908,17.162l-8.346,14.455C172.169,144.654,170.433,144.654,169.738,143.451z"/>
			<path style="fill:#FFFFFF;" d="M176.495,120.411h-0.224v-0.299h-9.978v2.26c0,2.038,1.224,3.788,2.976,4.563h-2.976
				c0,0.471,0.382,0.853,0.853,0.853h8.273c0.471,0,0.853-0.382,0.853-0.853h-2.976c1.16-0.513,2.09-1.452,2.584-2.622h0.615
				c1.076,0,1.951-0.875,1.951-1.951S177.57,120.411,176.495,120.411z M176.495,123.63h-0.39c0.105-0.403,0.166-0.823,0.166-1.258
				v-1.279h0.224c0.7,0,1.269,0.569,1.269,1.269S177.194,123.63,176.495,123.63z"/>
		</g>
		<g style="clip-path:url(#SVGID_00000149382154692221585220000018404126720479809715_);">
			<path style="fill:#E1565E;" d="M55.571,79.065L47.225,64.61c-4.404-7.628,1.101-17.162,9.909-17.162l0,0
				c8.808,0,14.312,9.534,9.908,17.162l-8.346,14.455C58.002,80.268,56.266,80.268,55.571,79.065z"/>
			<path style="fill:#FFFFFF;" d="M62.328,56.025h-0.224v-0.299h-9.978v2.26c0,2.038,1.224,3.788,2.976,4.563h-2.976
				c0,0.471,0.382,0.853,0.853,0.853h8.272c0.471,0,0.853-0.382,0.853-0.853h-2.976c1.16-0.513,2.09-1.452,2.584-2.623h0.615
				c1.076,0,1.951-0.875,1.951-1.951S63.403,56.025,62.328,56.025z M62.328,59.244h-0.39c0.105-0.403,0.166-0.823,0.166-1.258
				v-1.279h0.224c0.7,0,1.269,0.569,1.269,1.269C63.596,58.675,63.027,59.244,62.328,59.244z"/>
		</g>
		<g style="clip-path:url(#SVGID_00000149382154692221585220000018404126720479809715_);">
			<path style="fill:#E1565E;" d="M441.739,319.517l-8.346-14.455c-4.404-7.628,1.101-17.162,9.908-17.162h0
				c8.808,0,14.312,9.535,9.908,17.162l-8.346,14.455C444.169,320.72,442.433,320.72,441.739,319.517z"/>
			<path style="fill:#FFFFFF;" d="M448.495,296.476h-0.224v-0.298h-9.978v2.26c0,2.038,1.224,3.788,2.976,4.563h-2.976
				c0,0.471,0.382,0.853,0.853,0.853h8.272c0.471,0,0.853-0.382,0.853-0.853h-2.976c1.16-0.513,2.09-1.452,2.584-2.622h0.615
				c1.076,0,1.951-0.875,1.951-1.951C450.446,297.351,449.571,296.476,448.495,296.476z M448.495,299.696h-0.39
				c0.105-0.403,0.166-0.823,0.166-1.258v-1.279h0.224c0.7,0,1.269,0.569,1.269,1.269S449.195,299.696,448.495,299.696z"/>
		</g>
		<g style="clip-path:url(#SVGID_00000149382154692221585220000018404126720479809715_);">
			<path style="fill:#55D160;" d="M291.715,156.318l-8.346-14.455c-4.404-7.628,1.101-17.162,9.909-17.162h0
				c8.807,0,14.312,9.535,9.909,17.162l-8.346,14.455C294.146,157.521,292.41,157.521,291.715,156.318z"/>
			<path style="fill:#FFFFFF;" d="M299.552,135.42l-6.274-4.771l-6.274,4.771h1.679v6.213h3.475v-2.741
				c0-0.619,0.502-1.12,1.121-1.12c0.619,0,1.12,0.502,1.12,1.12v2.741h3.475v-6.213H299.552z"/>
		</g>
		<g style="clip-path:url(#SVGID_00000149382154692221585220000018404126720479809715_);">
			<path style="fill:#E09633;" d="M151.582,378.491l-8.346-14.455c-4.404-7.628,1.101-17.162,9.909-17.162l0,0
				c8.808,0,14.312,9.534,9.908,17.162l-8.346,14.455C154.013,379.694,152.276,379.694,151.582,378.491z"/>
			<g>
				<path style="fill:#FFFFFF;" d="M153.626,355.24v-2.332c0-1.086,0.88-1.966,1.966-1.966l0,0c1.086,0,1.966,0.88,1.966,1.966
					v2.332c0,1.086-0.88,1.966-1.966,1.966l0,0C154.506,357.206,153.626,356.325,153.626,355.24z"/>
				<path style="fill:#FFFFFF;" d="M154.79,366.96v-10.294h1.603v10.294c0,0.443-0.359,0.802-0.802,0.802l0,0
					C155.149,367.761,154.79,367.402,154.79,366.96z"/>
				<path style="fill:#FFFFFF;" d="M151.499,351.743v10.294h-1.604v-10.294c0-0.443,0.359-0.802,0.802-0.802l0,0
					C151.14,350.941,151.499,351.3,151.499,351.743z"/>
				<path style="fill:#FFFFFF;" d="M149.376,363.436h0.538v4.325h0.514v-4.325h0.538v4.325h0.514v-4.325h0.538v4.325h0.645v-4.777
					c0-0.822-0.666-1.488-1.488-1.488h-0.956c-0.822,0-1.488,0.666-1.488,1.488v4.777h0.645V363.436z"/>
			</g>
		</g>
		<g style="clip-path:url(#SVGID_00000149382154692221585220000018404126720479809715_);">
			<path style="fill:#E09633;" d="M63.924,473.032l-8.346-14.455c-4.404-7.628,1.101-17.162,9.909-17.162h0
				c8.808,0,14.312,9.534,9.908,17.162l-8.346,14.455C66.355,474.235,64.619,474.235,63.924,473.032z"/>
			<g>
				<path style="fill:#FFFFFF;" d="M65.968,449.781v-2.333c0-1.086,0.88-1.966,1.966-1.966l0,0c1.086,0,1.966,0.88,1.966,1.966
					v2.333c0,1.086-0.88,1.966-1.966,1.966l0,0C66.848,451.747,65.968,450.867,65.968,449.781z"/>
				<path style="fill:#FFFFFF;" d="M67.132,461.501v-10.293h1.604v10.293c0,0.443-0.359,0.802-0.802,0.802l0,0
					C67.492,462.303,67.132,461.944,67.132,461.501z"/>
				<path style="fill:#FFFFFF;" d="M63.841,446.284v10.293h-1.604v-10.293c0-0.443,0.359-0.802,0.802-0.802l0,0
					C63.482,445.482,63.841,445.841,63.841,446.284z"/>
				<path style="fill:#FFFFFF;" d="M61.718,457.978h0.538v4.325h0.514v-4.325h0.538v4.325h0.514v-4.325h0.538v4.325h0.645v-4.777
					c0-0.822-0.666-1.488-1.488-1.488h-0.957c-0.822,0-1.488,0.666-1.488,1.488v4.777h0.645V457.978z"/>
			</g>
		</g>
		<g style="clip-path:url(#SVGID_00000149382154692221585220000018404126720479809715_);">
			<path style="fill:#61A3D4;" d="M68.391,304.581l-8.346-14.455c-4.404-7.628,1.101-17.162,9.909-17.162l0,0
				c8.808,0,14.312,9.535,9.909,17.162l-8.346,14.455C70.821,305.784,69.085,305.784,68.391,304.581z"/>
			<path style="fill:#FFFFFF;" d="M73.856,279.999H72.64v-0.421c0-1.09-0.887-1.978-1.978-1.978h-1.418
				c-1.09,0-1.978,0.887-1.978,1.978v0.421h-1.216c-0.971,0-1.759,0.787-1.759,1.759v4.543c0,0.971,0.787,1.759,1.759,1.759h7.805
				c0.971,0,1.759-0.787,1.759-1.759v-4.543C75.615,280.786,74.827,279.999,73.856,279.999z M68.034,279.578
				c0-0.667,0.543-1.21,1.21-1.21h1.418c0.667,0,1.21,0.543,1.21,1.21v0.421h-3.838V279.578z"/>
		</g>
		<g style="clip-path:url(#SVGID_00000149382154692221585220000018404126720479809715_);">
			<path style="fill:#876CFF;" d="M228.589,330.198l-8.346-14.455c-4.404-7.628,1.101-17.162,9.908-17.162h0
				c8.807,0,14.312,9.535,9.908,17.162l-8.346,14.455C231.02,331.401,229.284,331.401,228.589,330.198z"/>
			<g>
				<g>
					<polygon style="fill:#FFFFFF;" points="235.024,313.274 225.28,313.274 226.765,305.282 233.539,305.282 					"/>
				</g>
				<g>
					<path style="fill:#FFFFFF;" d="M232.197,306.516h-4.09v-1.656c0-1.128,0.917-2.045,2.045-2.045
						c1.128,0,2.045,0.917,2.045,2.045V306.516z M228.626,305.996h3.051v-1.136c0-0.841-0.685-1.526-1.526-1.526
						c-0.841,0-1.526,0.684-1.526,1.526V305.996z"/>
				</g>
			</g>
		</g>
		<g style="clip-path:url(#SVGID_00000149382154692221585220000018404126720479809715_);">
			<path style="fill:#A7E156;" d="M380.419,280.513l-8.346-14.455c-4.404-7.628,1.101-17.162,9.909-17.162l0,0
				c8.808,0,14.312,9.535,9.909,17.162l-8.346,14.455C382.85,281.716,381.114,281.716,380.419,280.513z"/>
			<text transform="matrix(1 0 0 1 377.0296 265.6057)" style="fill:#FFFFFF; font-family:'Roboto-Bold'; font-size:13.9363px;">H</text>
		</g>
		<g style="clip-path:url(#SVGID_00000149382154692221585220000018404126720479809715_);">
			<path style="fill:#007E92;" d="M218.921,154.953l-8.346-14.455c-4.404-7.628,1.101-17.162,9.908-17.162h0
				c8.808,0,14.312,9.534,9.908,17.162l-8.346,14.455C221.352,156.156,219.615,156.156,218.921,154.953z"/>
			<text transform="matrix(1 0 0 1 216.1046 140.0458)" style="fill:#FFFFFF; font-family:'Roboto-Bold'; font-size:13.9363px;">P</text>
		</g>
		<g style="clip-path:url(#SVGID_00000149382154692221585220000018404126720479809715_);">
			<path style="fill:#E156D8;" d="M155.652,472.113l-8.346-14.455c-4.404-7.628,1.101-17.162,9.908-17.162h0
				c8.807,0,14.312,9.535,9.908,17.162l-8.346,14.455C158.083,473.316,156.347,473.316,155.652,472.113z"/>
			<path style="fill:#FFFFFF;" d="M162.65,448.937c-0.54-0.574-1.204-0.821-1.811-0.981v-2.065h-7.248v12.092h7.248v-0.766
				c0.446-0.089,0.926-0.238,1.346-0.59c0.532-0.445,1.031-1.383,0.87-2.39c-0.021-0.132-0.053-0.261-0.086-0.389
				c-0.049-0.194-0.096-0.378-0.09-0.555c0.009-0.256,0.121-0.476,0.25-0.731c0.073-0.144,0.145-0.288,0.203-0.441
				C163.746,451.021,163.31,449.639,162.65,448.937z M159.374,451.368h-4.318v-4.318h4.318V451.368z M162.73,451.893
				c-0.049,0.131-0.113,0.254-0.175,0.377c-0.143,0.282-0.306,0.602-0.319,1c-0.009,0.268,0.051,0.505,0.109,0.735
				c0.028,0.11,0.056,0.22,0.075,0.333c0.116,0.725-0.238,1.452-0.648,1.795c-0.279,0.234-0.601,0.348-0.933,0.424v-7.932
				c0.479,0.14,0.958,0.346,1.342,0.754C162.695,449.924,163.051,451.041,162.73,451.893z"/>
		</g>
		<g style="clip-path:url(#SVGID_00000149382154692221585220000018404126720479809715_);">
			<path style="fill:#E156D8;" d="M436.73,104.969l-8.346-14.455c-4.404-7.628,1.101-17.162,9.909-17.162l0,0
				c8.808,0,14.312,9.535,9.909,17.162l-8.346,14.455C439.161,106.172,437.425,106.172,436.73,104.969z"/>
			<path style="fill:#FFFFFF;" d="M443.728,81.793c-0.54-0.574-1.204-0.821-1.811-0.981v-2.065h-7.248v12.092h7.248v-0.766
				c0.446-0.089,0.926-0.238,1.346-0.59c0.532-0.445,1.031-1.383,0.87-2.39c-0.021-0.132-0.053-0.261-0.086-0.389
				c-0.049-0.194-0.096-0.378-0.09-0.555c0.009-0.256,0.121-0.475,0.25-0.731c0.073-0.144,0.146-0.288,0.203-0.441
				C444.824,83.877,444.388,82.495,443.728,81.793z M440.452,84.224h-4.318v-4.318h4.318V84.224z M443.808,84.749
				c-0.049,0.131-0.112,0.254-0.175,0.377c-0.143,0.282-0.305,0.602-0.319,1c-0.009,0.268,0.051,0.505,0.109,0.735
				c0.028,0.11,0.056,0.22,0.075,0.333c0.116,0.725-0.238,1.452-0.647,1.795c-0.279,0.234-0.601,0.348-0.933,0.424V81.48
				c0.479,0.14,0.958,0.346,1.342,0.754C443.773,82.78,444.128,83.897,443.808,84.749z"/>
		</g>
		<g style="clip-path:url(#SVGID_00000149382154692221585220000018404126720479809715_);">
			<path style="fill:#38B4E1;" d="M181.179,304.478l-8.346-14.455c-4.404-7.628,1.101-17.162,9.908-17.162l0,0
				c8.808,0,14.312,9.535,9.908,17.162l-8.346,14.455C183.61,305.681,181.874,305.681,181.179,304.478z"/>
			<path style="fill:#FFFFFF;" d="M189.708,279.542h-2.193l0.035-0.161h-10.167l1.194,5.478h7.094l-0.615,2.648h-6.636
				c-0.178,0-0.322,0.144-0.322,0.322c0,0.178,0.144,0.322,0.322,0.322h0.125c-0.072,0.11-0.125,0.234-0.125,0.375
				c0,0.385,0.312,0.697,0.697,0.697s0.697-0.312,0.697-0.697c0-0.141-0.053-0.266-0.125-0.375h4.055
				c-0.072,0.11-0.125,0.234-0.125,0.375c0,0.385,0.312,0.697,0.697,0.697c0.385,0,0.697-0.312,0.697-0.697
				c0-0.141-0.053-0.266-0.125-0.375h0.423c0.15,0,0.28-0.103,0.314-0.249l0.707-3.042h0.023l1.019-4.674h2.333
				c0.178,0,0.322-0.144,0.322-0.322C190.03,279.686,189.886,279.542,189.708,279.542z"/>
		</g>
		<g style="clip-path:url(#SVGID_00000149382154692221585220000018404126720479809715_);">
			<path style="fill:#E19499;" d="M309.005,268.705l-8.346-14.455c-4.404-7.627,1.101-17.162,9.908-17.162h0
				c8.808,0,14.312,9.535,9.909,17.162l-8.346,14.455C311.436,269.908,309.7,269.908,309.005,268.705z"/>
			<polygon style="fill:#FFFFFF;" points="311.292,250.131 315.798,243.501 305.339,243.501 309.844,250.131 309.844,254.596 
				307.833,254.596 307.833,255.381 313.303,255.381 313.303,254.596 311.292,254.596 			"/>
		</g>
		<g style="clip-path:url(#SVGID_00000149382154692221585220000018404126720479809715_);">
			<path style="fill:#E19499;" d="M272.002,413.469l-8.346-14.455c-4.404-7.628,1.101-17.162,9.908-17.162h0
				c8.808,0,14.312,9.535,9.909,17.162l-8.346,14.455C274.432,414.672,272.696,414.672,272.002,413.469z"/>
			<polygon style="fill:#FFFFFF;" points="274.288,394.895 278.794,388.265 268.335,388.265 272.84,394.895 272.84,399.36 
				270.829,399.36 270.829,400.145 276.3,400.145 276.3,399.36 274.288,399.36 			"/>
		</g>
		<g style="clip-path:url(#SVGID_00000149382154692221585220000018404126720479809715_);">
			<path style="fill:#56DAE1;" d="M201.289,399.884l-8.346-14.455c-4.404-7.628,1.101-17.162,9.908-17.162l0,0
				c8.808,0,14.312,9.535,9.908,17.162l-8.346,14.455C203.72,401.087,201.984,401.087,201.289,399.884z"/>
			<g>
				<rect x="196.223" y="376.246" style="fill:#FFFFFF;" width="2.192" height="6.291"/>
				<rect x="207.936" y="376.246" style="fill:#FFFFFF;" width="2.192" height="6.291"/>
				<rect x="197.843" y="379.391" style="fill:#FFFFFF;" width="11.188" height="1.525"/>
				<circle style="fill:#FFFFFF;" cx="199.94" cy="378.248" r="1.179"/>
				<path style="fill:#FFFFFF;" d="M200.4,377.912c1.055-0.505,2.225-1.024,3.356-0.723c0.374,0.099,0.721,0.285,1.095,0.389
					c0.662,0.184,1.372,0.1,2.038-0.069c0.387-0.098,0.79-0.225,1.176-0.124c0.386,0.101,0.711,0.546,0.524,0.898
					c0.272,0.414,0.12,1.016-0.218,1.379c-0.337,0.363-0.844,0.527-1.339,0.561c-0.494,0.034-0.989-0.047-1.481-0.099
					c-1.153-0.123-2.322-0.093-3.467,0.091c-0.298,0.048-0.606,0.105-0.897,0.025c-0.429-0.118-0.732-0.52-0.856-0.947
					C200.208,378.865,200.374,378.356,200.4,377.912z"/>
			</g>
		</g>
		<g style="clip-path:url(#SVGID_00000149382154692221585220000018404126720479809715_);">
			<path style="fill:#56DAE1;" d="M309.005,324.636l-8.346-14.455c-4.404-7.628,1.101-17.162,9.909-17.162l0,0
				c8.808,0,14.312,9.534,9.908,17.162l-8.346,14.455C311.436,325.839,309.7,325.839,309.005,324.636z"/>
			<g>
				<rect x="303.939" y="300.998" style="fill:#FFFFFF;" width="2.192" height="6.291"/>
				<rect x="315.651" y="300.998" style="fill:#FFFFFF;" width="2.192" height="6.291"/>
				<rect x="305.56" y="304.143" style="fill:#FFFFFF;" width="11.188" height="1.525"/>
				<path style="fill:#FFFFFF;" d="M308.836,303c0,0.651-0.528,1.179-1.179,1.179c-0.651,0-1.18-0.528-1.18-1.179
					s0.528-1.179,1.18-1.179C308.308,301.82,308.836,302.348,308.836,303z"/>
				<path style="fill:#FFFFFF;" d="M308.116,302.664c1.055-0.505,2.225-1.024,3.356-0.723c0.375,0.099,0.721,0.285,1.095,0.389
					c0.663,0.184,1.372,0.1,2.038-0.069c0.387-0.098,0.79-0.225,1.176-0.124s0.711,0.546,0.524,0.898
					c0.272,0.414,0.12,1.015-0.218,1.378c-0.337,0.363-0.844,0.527-1.339,0.561c-0.495,0.034-0.988-0.047-1.481-0.099
					c-1.153-0.123-2.322-0.093-3.467,0.091c-0.298,0.048-0.606,0.105-0.897,0.025c-0.429-0.118-0.732-0.52-0.856-0.947
					C307.924,303.617,308.09,303.108,308.116,302.664z"/>
			</g>
		</g>
		<g style="clip-path:url(#SVGID_00000149382154692221585220000018404126720479809715_);">
			<path style="fill:#56DAE1;" d="M55.572,362.231l-8.346-14.455c-4.404-7.628,1.101-17.162,9.908-17.162l0,0
				c8.808,0,14.312,9.535,9.909,17.162l-8.346,14.455C58.003,363.434,56.266,363.434,55.572,362.231z"/>
			<g>
				<rect x="50.506" y="338.593" style="fill:#FFFFFF;" width="2.192" height="6.291"/>
				<rect x="62.218" y="338.593" style="fill:#FFFFFF;" width="2.192" height="6.291"/>
				<rect x="52.126" y="341.738" style="fill:#FFFFFF;" width="11.188" height="1.525"/>
				<circle style="fill:#FFFFFF;" cx="54.223" cy="340.595" r="1.179"/>
				<path style="fill:#FFFFFF;" d="M54.682,340.259c1.055-0.506,2.225-1.024,3.356-0.724c0.375,0.099,0.721,0.285,1.095,0.389
					c0.663,0.184,1.372,0.1,2.038-0.069c0.387-0.098,0.79-0.225,1.176-0.124c0.386,0.101,0.711,0.546,0.524,0.898
					c0.272,0.414,0.12,1.015-0.218,1.379c-0.337,0.363-0.844,0.527-1.339,0.561c-0.494,0.034-0.989-0.047-1.481-0.099
					c-1.153-0.123-2.322-0.093-3.467,0.091c-0.298,0.048-0.606,0.105-0.897,0.025c-0.429-0.118-0.732-0.52-0.856-0.947
					C54.491,341.212,54.657,340.703,54.682,340.259z"/>
			</g>
		</g>
		<g style="clip-path:url(#SVGID_00000149382154692221585220000018404126720479809715_);">
			<path style="fill:#FFA64D;" d="M370.861,134.879l-8.346-14.455c-4.404-7.628,1.101-17.162,9.909-17.162h0
				c8.807,0,14.312,9.534,9.909,17.162l-8.346,14.455C373.292,136.082,371.556,136.082,370.861,134.879z"/>
			<text transform="matrix(1 0 0 1 364.9871 115.9119)" style="fill:#FFFFFF; font-family:'Roboto-Bold'; font-size:7.7236px;">ATM</text>
		</g>
		<g style="clip-path:url(#SVGID_00000149382154692221585220000018404126720479809715_);">
			<path style="fill:#876CFF;" d="M130.275,123.871l-8.346-14.455c-4.404-7.628,1.101-17.162,9.909-17.162l0,0
				c8.808,0,14.312,9.534,9.908,17.162l-8.346,14.455C132.706,125.074,130.969,125.074,130.275,123.871z"/>
			<g>
				<g>
					<polygon style="fill:#FFFFFF;" points="136.71,106.947 126.966,106.947 128.45,98.955 135.225,98.955 					"/>
				</g>
				<g>
					<path style="fill:#FFFFFF;" d="M133.883,100.188h-4.09v-1.656c0-1.128,0.917-2.045,2.045-2.045
						c1.128,0,2.045,0.917,2.045,2.045V100.188z M130.312,99.669h3.051v-1.136c0-0.841-0.685-1.526-1.526-1.526
						c-0.841,0-1.526,0.685-1.526,1.526V99.669z"/>
				</g>
			</g>
		</g>
	</g>
</g>
<g id="Designed_by_Freepik">
	<g>
		<g>
			<path style="fill:#565657;" d="M178.765,483.929v-0.161c-0.218,0.249-0.433,0.452-0.644,0.608
				c-0.212,0.157-0.441,0.276-0.689,0.357c-0.247,0.082-0.517,0.122-0.81,0.122c-0.388,0-0.747-0.082-1.078-0.246
				c-0.33-0.164-0.616-0.399-0.857-0.704c-0.242-0.305-0.425-0.662-0.549-1.074c-0.124-0.412-0.187-0.857-0.187-1.335
				c0-1.013,0.247-1.804,0.742-2.369c0.495-0.565,1.146-0.848,1.953-0.848c0.467,0,0.861,0.081,1.181,0.24
				c0.321,0.161,0.633,0.408,0.938,0.739v-2.392c0-0.333,0.066-0.583,0.199-0.754c0.132-0.17,0.321-0.255,0.567-0.255
				c0.245,0,0.434,0.078,0.567,0.234c0.133,0.157,0.199,0.386,0.199,0.691v7.147c0,0.309-0.071,0.54-0.214,0.694
				c-0.142,0.154-0.326,0.231-0.552,0.231c-0.221,0-0.405-0.08-0.549-0.24C178.837,484.453,178.765,484.225,178.765,483.929z
				 M175.577,481.548c0,0.439,0.068,0.813,0.205,1.122c0.137,0.309,0.324,0.541,0.561,0.697c0.238,0.157,0.497,0.236,0.778,0.236
				c0.285,0,0.545-0.075,0.781-0.223c0.235-0.148,0.423-0.376,0.564-0.682c0.141-0.307,0.21-0.691,0.21-1.149
				c0-0.432-0.07-0.803-0.21-1.114c-0.14-0.31-0.33-0.547-0.57-0.712c-0.24-0.164-0.502-0.245-0.786-0.245
				c-0.297,0-0.562,0.084-0.795,0.252c-0.234,0.168-0.415,0.409-0.543,0.724C175.641,480.767,175.577,481.132,175.577,481.548z"/>
			<path style="fill:#565657;" d="M185.911,481.958h-3.169c0.004,0.367,0.078,0.692,0.223,0.973
				c0.144,0.281,0.336,0.493,0.576,0.635c0.24,0.143,0.504,0.213,0.793,0.213c0.194,0,0.371-0.022,0.531-0.067
				c0.16-0.046,0.315-0.117,0.466-0.214c0.15-0.096,0.289-0.201,0.415-0.312c0.126-0.111,0.29-0.262,0.493-0.452
				c0.083-0.071,0.202-0.107,0.357-0.107c0.166,0,0.3,0.046,0.403,0.137c0.103,0.091,0.155,0.219,0.155,0.386
				c0,0.147-0.058,0.317-0.172,0.513c-0.116,0.196-0.289,0.384-0.52,0.564c-0.232,0.18-0.522,0.329-0.873,0.448
				c-0.35,0.119-0.753,0.178-1.208,0.178c-1.04,0-1.85-0.297-2.428-0.891c-0.578-0.593-0.866-1.399-0.866-2.416
				c0-0.479,0.071-0.923,0.213-1.332c0.143-0.41,0.351-0.761,0.623-1.054c0.273-0.293,0.609-0.517,1.009-0.674
				c0.4-0.156,0.843-0.234,1.33-0.234c0.633,0,1.176,0.133,1.629,0.4c0.454,0.267,0.793,0.612,1.019,1.035
				c0.225,0.424,0.339,0.856,0.339,1.294c0,0.408-0.117,0.672-0.35,0.794C186.664,481.897,186.335,481.958,185.911,481.958z
				 M182.742,481.038h2.939c-0.039-0.554-0.189-0.969-0.448-1.244c-0.259-0.275-0.6-0.413-1.024-0.413
				c-0.404,0-0.735,0.139-0.994,0.418C182.954,480.078,182.798,480.492,182.742,481.038z"/>
			<path style="fill:#565657;" d="M193.296,482.735c0,0.447-0.108,0.831-0.327,1.149c-0.217,0.319-0.539,0.56-0.965,0.724
				c-0.425,0.164-0.943,0.246-1.552,0.246c-0.582,0-1.08-0.089-1.496-0.267c-0.415-0.178-0.722-0.401-0.92-0.667
				c-0.198-0.268-0.297-0.535-0.297-0.805c0-0.178,0.063-0.33,0.19-0.457c0.126-0.126,0.287-0.19,0.481-0.19
				c0.17,0,0.3,0.042,0.391,0.124c0.091,0.083,0.179,0.2,0.261,0.35c0.166,0.29,0.366,0.504,0.597,0.648
				c0.231,0.142,0.547,0.214,0.947,0.214c0.324,0,0.59-0.073,0.798-0.217c0.207-0.145,0.311-0.31,0.311-0.496
				c0-0.285-0.107-0.492-0.324-0.622c-0.216-0.131-0.571-0.256-1.066-0.375c-0.558-0.138-1.012-0.284-1.362-0.436
				c-0.35-0.151-0.63-0.353-0.84-0.602c-0.21-0.25-0.315-0.557-0.315-0.92c0-0.324,0.097-0.631,0.291-0.92
				c0.194-0.288,0.48-0.519,0.858-0.691c0.377-0.173,0.833-0.259,1.368-0.259c0.419,0,0.797,0.043,1.131,0.131
				c0.335,0.086,0.614,0.204,0.837,0.35c0.224,0.146,0.394,0.308,0.51,0.486c0.117,0.178,0.175,0.352,0.175,0.523
				c0,0.186-0.062,0.338-0.186,0.457c-0.124,0.118-0.301,0.178-0.531,0.178c-0.166,0-0.308-0.048-0.424-0.143
				c-0.117-0.095-0.25-0.237-0.401-0.427c-0.123-0.158-0.266-0.285-0.433-0.38c-0.166-0.095-0.392-0.142-0.677-0.142
				c-0.293,0-0.536,0.062-0.73,0.187c-0.194,0.124-0.291,0.279-0.291,0.465c0,0.171,0.071,0.31,0.213,0.419
				c0.143,0.109,0.334,0.2,0.576,0.27c0.241,0.071,0.573,0.158,0.997,0.261c0.502,0.123,0.912,0.27,1.231,0.439
				c0.318,0.17,0.56,0.371,0.725,0.603C193.214,482.174,193.296,482.438,193.296,482.735z"/>
			<path style="fill:#565657;" d="M194.951,477.512c-0.225,0-0.418-0.07-0.579-0.208c-0.16-0.138-0.24-0.334-0.24-0.588
				c0-0.23,0.082-0.418,0.246-0.567s0.356-0.223,0.573-0.223c0.21,0,0.396,0.067,0.558,0.202c0.162,0.135,0.244,0.33,0.244,0.588
				c0,0.25-0.08,0.444-0.238,0.585C195.357,477.441,195.169,477.512,194.951,477.512z M195.753,479.185v4.683
				c0,0.325-0.077,0.571-0.232,0.737c-0.155,0.166-0.35,0.249-0.588,0.249c-0.238,0-0.431-0.085-0.579-0.255
				c-0.149-0.17-0.222-0.414-0.222-0.731v-4.636c0-0.32,0.074-0.561,0.222-0.724c0.148-0.162,0.341-0.244,0.579-0.244
				c0.238,0,0.433,0.081,0.588,0.244C195.676,478.671,195.753,478.897,195.753,479.185z"/>
			<path style="fill:#565657;" d="M202.852,479.453v4.707c0,0.538-0.058,1.001-0.173,1.39c-0.114,0.387-0.298,0.708-0.552,0.961
				c-0.253,0.253-0.585,0.441-0.994,0.563c-0.41,0.123-0.919,0.184-1.529,0.184c-0.558,0-1.056-0.078-1.496-0.234
				c-0.439-0.157-0.777-0.358-1.015-0.605c-0.237-0.247-0.356-0.502-0.356-0.763c0-0.198,0.068-0.359,0.202-0.483
				c0.134-0.125,0.297-0.187,0.486-0.187c0.238,0,0.445,0.105,0.624,0.314c0.087,0.107,0.177,0.216,0.27,0.324
				c0.093,0.109,0.197,0.202,0.309,0.279c0.113,0.076,0.248,0.134,0.406,0.172c0.158,0.037,0.341,0.056,0.546,0.056
				c0.42,0,0.745-0.058,0.977-0.175c0.232-0.117,0.394-0.28,0.487-0.49c0.093-0.209,0.147-0.433,0.163-0.673
				c0.016-0.24,0.027-0.624,0.035-1.155c-0.25,0.349-0.537,0.615-0.864,0.797c-0.326,0.182-0.715,0.273-1.166,0.273
				c-0.542,0-1.016-0.138-1.422-0.416c-0.405-0.277-0.717-0.665-0.934-1.163c-0.218-0.499-0.326-1.074-0.326-1.727
				c0-0.487,0.066-0.927,0.198-1.318c0.133-0.392,0.322-0.723,0.567-0.992c0.245-0.269,0.528-0.472,0.849-0.609
				c0.32-0.136,0.673-0.204,1.057-0.204c0.459,0,0.857,0.089,1.193,0.264c0.336,0.177,0.649,0.453,0.938,0.829v-0.22
				c0-0.281,0.069-0.498,0.208-0.653c0.139-0.154,0.317-0.231,0.535-0.231c0.313,0,0.52,0.103,0.623,0.306
				C202.8,478.775,202.852,479.069,202.852,479.453z M198.156,481.507c0,0.657,0.143,1.154,0.43,1.49
				c0.287,0.337,0.658,0.505,1.113,0.505c0.269,0,0.523-0.073,0.762-0.217c0.24-0.145,0.435-0.362,0.585-0.653
				c0.15-0.291,0.226-0.644,0.226-1.06c0-0.66-0.145-1.176-0.436-1.543c-0.291-0.368-0.674-0.552-1.149-0.552
				c-0.463,0-0.834,0.176-1.113,0.529C198.296,480.357,198.156,480.858,198.156,481.507z"/>
			<path style="fill:#565657;" d="M205.427,479.162v0.196c0.285-0.376,0.596-0.652,0.935-0.828c0.338-0.176,0.727-0.264,1.166-0.264
				c0.428,0,0.809,0.093,1.146,0.28c0.336,0.186,0.588,0.449,0.754,0.789c0.107,0.198,0.176,0.413,0.208,0.642
				c0.032,0.23,0.048,0.522,0.048,0.879v3.015c0,0.325-0.074,0.571-0.223,0.737c-0.148,0.166-0.341,0.249-0.579,0.249
				c-0.242,0-0.437-0.085-0.588-0.255c-0.151-0.17-0.226-0.414-0.226-0.731v-2.701c0-0.534-0.074-0.943-0.223-1.226
				c-0.149-0.283-0.444-0.425-0.888-0.425c-0.288,0-0.552,0.086-0.789,0.258c-0.237,0.173-0.412,0.409-0.522,0.71
				c-0.079,0.242-0.119,0.692-0.119,1.353v2.03c0,0.328-0.077,0.576-0.228,0.74c-0.152,0.164-0.349,0.246-0.59,0.246
				c-0.234,0-0.426-0.085-0.576-0.255c-0.15-0.17-0.226-0.414-0.226-0.731v-4.683c0-0.309,0.067-0.54,0.202-0.692
				c0.135-0.152,0.319-0.228,0.552-0.228c0.143,0,0.272,0.034,0.387,0.101c0.114,0.068,0.207,0.168,0.276,0.302
				C205.393,478.803,205.427,478.968,205.427,479.162z"/>
			<path style="fill:#565657;" d="M215.286,481.958h-3.169c0.004,0.367,0.078,0.692,0.223,0.973
				c0.144,0.281,0.336,0.493,0.576,0.635c0.239,0.143,0.503,0.213,0.792,0.213c0.194,0,0.371-0.022,0.532-0.067
				c0.16-0.046,0.315-0.117,0.466-0.214c0.15-0.096,0.288-0.201,0.416-0.312c0.126-0.111,0.29-0.262,0.492-0.452
				c0.083-0.071,0.202-0.107,0.356-0.107c0.166,0,0.301,0.046,0.404,0.137c0.103,0.091,0.154,0.219,0.154,0.386
				c0,0.147-0.057,0.317-0.172,0.513c-0.115,0.196-0.288,0.384-0.52,0.564c-0.232,0.18-0.522,0.329-0.872,0.448
				c-0.35,0.119-0.753,0.178-1.208,0.178c-1.041,0-1.85-0.297-2.428-0.891c-0.577-0.593-0.866-1.399-0.866-2.416
				c0-0.479,0.071-0.923,0.214-1.332c0.142-0.41,0.351-0.761,0.624-1.054c0.273-0.293,0.609-0.517,1.009-0.674
				c0.4-0.156,0.843-0.234,1.33-0.234c0.633,0,1.176,0.133,1.629,0.4c0.453,0.267,0.793,0.612,1.019,1.035
				c0.225,0.424,0.339,0.856,0.339,1.294c0,0.408-0.117,0.672-0.35,0.794C216.039,481.897,215.71,481.958,215.286,481.958z
				 M212.117,481.038h2.938c-0.039-0.554-0.189-0.969-0.448-1.244c-0.259-0.275-0.601-0.413-1.024-0.413
				c-0.404,0-0.736,0.139-0.995,0.418C212.329,480.078,212.173,480.492,212.117,481.038z"/>
			<path style="fill:#565657;" d="M221.893,483.929v-0.161c-0.218,0.249-0.432,0.452-0.644,0.608
				c-0.212,0.157-0.441,0.276-0.688,0.357c-0.247,0.082-0.517,0.122-0.81,0.122c-0.388,0-0.747-0.082-1.077-0.246
				c-0.33-0.164-0.617-0.399-0.858-0.704c-0.242-0.305-0.424-0.662-0.549-1.074c-0.125-0.412-0.187-0.857-0.187-1.335
				c0-1.013,0.247-1.804,0.742-2.369c0.495-0.565,1.146-0.848,1.953-0.848c0.467,0,0.861,0.081,1.181,0.24
				c0.32,0.161,0.633,0.408,0.938,0.739v-2.392c0-0.333,0.066-0.583,0.199-0.754c0.132-0.17,0.322-0.255,0.567-0.255
				c0.245,0,0.434,0.078,0.567,0.234c0.132,0.157,0.199,0.386,0.199,0.691v7.147c0,0.309-0.071,0.54-0.214,0.694
				c-0.143,0.154-0.326,0.231-0.552,0.231c-0.222,0-0.405-0.08-0.549-0.24C221.965,484.453,221.893,484.225,221.893,483.929z
				 M218.705,481.548c0,0.439,0.068,0.813,0.204,1.122c0.136,0.309,0.324,0.541,0.561,0.697c0.237,0.157,0.496,0.236,0.777,0.236
				c0.285,0,0.546-0.075,0.781-0.223c0.236-0.148,0.424-0.376,0.564-0.682c0.141-0.307,0.211-0.691,0.211-1.149
				c0-0.432-0.07-0.803-0.211-1.114c-0.14-0.31-0.33-0.547-0.57-0.712c-0.24-0.164-0.502-0.245-0.787-0.245
				c-0.296,0-0.562,0.084-0.795,0.252c-0.233,0.168-0.414,0.409-0.543,0.724C218.769,480.767,218.705,481.132,218.705,481.548z"/>
			<path style="fill:#565657;" d="M228.516,476.781v2.475c0.305-0.316,0.615-0.559,0.932-0.727c0.316-0.168,0.709-0.252,1.176-0.252
				c0.538,0,1.01,0.128,1.416,0.382c0.405,0.256,0.72,0.626,0.944,1.111c0.223,0.484,0.336,1.06,0.336,1.725
				c0,0.491-0.063,0.94-0.187,1.35c-0.125,0.41-0.306,0.765-0.543,1.065c-0.238,0.301-0.525,0.534-0.864,0.698
				c-0.339,0.164-0.712,0.246-1.119,0.246c-0.25,0-0.484-0.029-0.703-0.089c-0.22-0.059-0.407-0.137-0.561-0.234
				c-0.154-0.096-0.286-0.197-0.395-0.3c-0.109-0.103-0.253-0.258-0.431-0.463v0.161c0,0.305-0.073,0.535-0.22,0.692
				c-0.146,0.156-0.332,0.234-0.558,0.234c-0.23,0-0.413-0.078-0.549-0.234c-0.137-0.157-0.205-0.388-0.205-0.692v-7.077
				c0-0.328,0.066-0.577,0.198-0.745c0.133-0.168,0.318-0.252,0.555-0.252c0.25,0,0.441,0.08,0.576,0.24
				C228.449,476.256,228.516,476.484,228.516,476.781z M228.594,481.596c0,0.645,0.147,1.14,0.442,1.486
				c0.295,0.347,0.682,0.521,1.161,0.521c0.407,0,0.759-0.177,1.053-0.532c0.295-0.355,0.442-0.862,0.442-1.523
				c0-0.427-0.061-0.796-0.184-1.104c-0.123-0.309-0.297-0.548-0.522-0.715c-0.226-0.168-0.489-0.252-0.79-0.252
				c-0.309,0-0.584,0.084-0.825,0.252c-0.241,0.168-0.431,0.411-0.57,0.73C228.663,480.777,228.594,481.156,228.594,481.596z"/>
			<path style="fill:#565657;" d="M235.42,485.056l0.148-0.363l-1.995-5.022c-0.122-0.288-0.184-0.499-0.184-0.629
				c0-0.139,0.036-0.267,0.107-0.385c0.071-0.119,0.169-0.214,0.294-0.285c0.125-0.072,0.255-0.107,0.389-0.107
				c0.233,0,0.409,0.075,0.529,0.223c0.119,0.148,0.223,0.361,0.314,0.638l1.371,3.989l1.3-3.71c0.102-0.3,0.196-0.536,0.279-0.706
				c0.083-0.17,0.171-0.285,0.264-0.344c0.093-0.06,0.225-0.09,0.395-0.09c0.123,0,0.24,0.032,0.353,0.098
				c0.113,0.065,0.199,0.153,0.261,0.264c0.061,0.111,0.092,0.227,0.092,0.35c-0.016,0.075-0.042,0.182-0.077,0.321
				c-0.036,0.138-0.079,0.279-0.13,0.421l-2.113,5.533c-0.182,0.487-0.36,0.868-0.535,1.145c-0.174,0.277-0.404,0.491-0.691,0.638
				c-0.287,0.149-0.674,0.223-1.161,0.223c-0.475,0-0.831-0.051-1.068-0.154c-0.238-0.104-0.356-0.292-0.356-0.565
				c0-0.185,0.056-0.33,0.169-0.43c0.112-0.101,0.28-0.152,0.501-0.152c0.087,0,0.173,0.012,0.256,0.037
				c0.103,0.023,0.192,0.035,0.267,0.035c0.186,0,0.333-0.027,0.44-0.084c0.106-0.055,0.202-0.151,0.288-0.288
				C235.211,485.523,235.309,485.321,235.42,485.056z"/>
		</g>
		<g>
			<path style="fill:#565657;" d="M258.897,478.405h0.386v-0.487c0-0.509,0.062-0.911,0.192-1.211
				c0.128-0.299,0.347-0.516,0.654-0.653c0.306-0.135,0.727-0.204,1.26-0.204c0.95,0,1.42,0.229,1.42,0.696
				c0,0.149-0.049,0.278-0.15,0.385c-0.096,0.106-0.214,0.16-0.348,0.16c-0.062,0-0.174-0.012-0.33-0.037
				c-0.148-0.021-0.283-0.035-0.389-0.035c-0.292,0-0.479,0.088-0.566,0.259c-0.079,0.172-0.122,0.418-0.122,0.74v0.386h0.395
				c0.62,0,0.926,0.186,0.926,0.56c0,0.262-0.079,0.432-0.245,0.503c-0.164,0.071-0.39,0.107-0.681,0.107h-0.395v4.294
				c0,0.319-0.075,0.563-0.231,0.73c-0.151,0.17-0.346,0.254-0.589,0.254c-0.229,0-0.419-0.084-0.574-0.254
				c-0.153-0.167-0.228-0.411-0.228-0.73v-4.294h-0.446c-0.243,0-0.427-0.052-0.558-0.164c-0.131-0.107-0.197-0.25-0.197-0.424
				C258.082,478.598,258.354,478.405,258.897,478.405"/>
			<path style="fill:#565657;" d="M264.203,482.514v1.355c0,0.327-0.083,0.574-0.234,0.737c-0.154,0.166-0.349,0.247-0.586,0.247
				c-0.239,0-0.43-0.082-0.579-0.25c-0.148-0.165-0.225-0.41-0.225-0.734v-4.514c0-0.729,0.263-1.093,0.788-1.093
				c0.271,0,0.464,0.084,0.583,0.255c0.118,0.171,0.184,0.421,0.198,0.755c0.192-0.334,0.39-0.584,0.593-0.755
				c0.208-0.171,0.477-0.255,0.819-0.255c0.343,0,0.67,0.084,0.991,0.255c0.322,0.171,0.482,0.398,0.482,0.678
				c0,0.197-0.069,0.363-0.204,0.488c-0.137,0.131-0.284,0.195-0.441,0.195c-0.062,0-0.207-0.039-0.433-0.112
				c-0.228-0.071-0.43-0.108-0.602-0.108c-0.237,0-0.433,0.064-0.582,0.186c-0.151,0.128-0.269,0.311-0.353,0.554
				c-0.081,0.247-0.137,0.541-0.17,0.878C264.217,481.615,264.203,482.028,264.203,482.514"/>
			<path style="fill:#565657;" d="M271.653,481.956h-3.171c0.005,0.367,0.078,0.694,0.221,0.974
				c0.147,0.279,0.337,0.491,0.578,0.635c0.241,0.142,0.502,0.212,0.793,0.212c0.194,0,0.37-0.021,0.531-0.07
				c0.159-0.043,0.316-0.116,0.466-0.213c0.151-0.095,0.287-0.199,0.415-0.313c0.126-0.109,0.292-0.26,0.494-0.449
				c0.084-0.071,0.203-0.109,0.355-0.109c0.168,0,0.301,0.046,0.406,0.139c0.104,0.092,0.152,0.219,0.152,0.386
				c0,0.147-0.056,0.317-0.167,0.512c-0.117,0.198-0.289,0.385-0.522,0.566c-0.234,0.178-0.524,0.33-0.874,0.446
				c-0.35,0.119-0.754,0.179-1.207,0.179c-1.044,0-1.853-0.295-2.429-0.889c-0.577-0.595-0.87-1.401-0.87-2.418
				c0-0.479,0.073-0.924,0.217-1.334c0.14-0.411,0.349-0.76,0.624-1.055c0.272-0.294,0.606-0.518,1.008-0.674
				c0.398-0.156,0.842-0.234,1.33-0.234c0.632,0,1.176,0.134,1.629,0.404c0.452,0.264,0.796,0.61,1.018,1.034
				c0.226,0.425,0.339,0.855,0.339,1.296c0,0.405-0.118,0.669-0.351,0.791C272.405,481.896,272.077,481.956,271.653,481.956
				 M268.482,481.035h2.938c-0.039-0.553-0.186-0.969-0.446-1.241c-0.261-0.277-0.599-0.413-1.025-0.413
				c-0.403,0-0.736,0.137-0.995,0.418C268.695,480.078,268.536,480.489,268.482,481.035"/>
			<path style="fill:#565657;" d="M278.395,481.956h-3.171c0.004,0.367,0.078,0.694,0.222,0.974
				c0.145,0.279,0.337,0.491,0.576,0.635c0.239,0.142,0.503,0.212,0.795,0.212c0.192,0,0.371-0.021,0.528-0.07
				c0.162-0.043,0.316-0.116,0.469-0.213c0.151-0.095,0.288-0.199,0.415-0.313c0.125-0.109,0.29-0.26,0.493-0.449
				c0.084-0.071,0.204-0.109,0.355-0.109c0.168,0,0.302,0.046,0.406,0.139c0.103,0.092,0.15,0.219,0.15,0.386
				c0,0.147-0.054,0.317-0.171,0.512c-0.111,0.198-0.285,0.385-0.519,0.566c-0.231,0.178-0.525,0.33-0.872,0.446
				c-0.348,0.119-0.755,0.179-1.209,0.179c-1.042,0-1.849-0.295-2.429-0.889c-0.577-0.595-0.868-1.401-0.868-2.418
				c0-0.479,0.073-0.924,0.217-1.334c0.142-0.411,0.349-0.76,0.623-1.055c0.272-0.294,0.608-0.518,1.009-0.674
				c0.398-0.156,0.844-0.234,1.331-0.234c0.63,0,1.174,0.134,1.633,0.404c0.45,0.264,0.791,0.61,1.013,1.034
				c0.225,0.425,0.341,0.855,0.341,1.296c0,0.405-0.12,0.669-0.351,0.791C279.145,481.896,278.818,481.956,278.395,481.956
				 M275.224,481.035h2.938c-0.04-0.553-0.19-0.969-0.447-1.241c-0.263-0.277-0.601-0.413-1.027-0.413
				c-0.403,0-0.735,0.137-0.996,0.418C275.436,480.078,275.277,480.489,275.224,481.035"/>
			<path style="fill:#565657;" d="M281.945,479.174v0.194c0.304-0.375,0.621-0.651,0.953-0.828c0.324-0.178,0.699-0.267,1.114-0.267
				c0.497,0,0.96,0.13,1.379,0.386c0.419,0.259,0.749,0.635,0.993,1.129c0.244,0.497,0.366,1.081,0.366,1.758
				c0,0.497-0.07,0.957-0.21,1.376c-0.14,0.417-0.336,0.767-0.58,1.05c-0.246,0.281-0.535,0.501-0.868,0.654
				c-0.339,0.151-0.695,0.227-1.08,0.227c-0.461,0-0.853-0.093-1.166-0.279c-0.314-0.182-0.614-0.458-0.901-0.816v2.433
				c0,0.71-0.26,1.069-0.778,1.069c-0.306,0-0.505-0.091-0.607-0.275c-0.095-0.187-0.146-0.452-0.146-0.807v-6.996
				c0-0.309,0.066-0.537,0.2-0.692c0.134-0.15,0.32-0.228,0.553-0.228c0.231,0,0.416,0.078,0.56,0.234
				C281.874,478.654,281.945,478.877,281.945,479.174 M285.123,481.529c0-0.428-0.067-0.796-0.197-1.102
				c-0.131-0.308-0.312-0.542-0.541-0.705c-0.229-0.164-0.489-0.248-0.77-0.248c-0.446,0-0.824,0.178-1.13,0.527
				c-0.308,0.354-0.462,0.872-0.462,1.558c0,0.642,0.153,1.146,0.46,1.504c0.305,0.358,0.679,0.536,1.133,0.536
				c0.268,0,0.519-0.079,0.748-0.233c0.232-0.158,0.416-0.392,0.552-0.704C285.053,482.35,285.123,481.971,285.123,481.529"/>
			<path style="fill:#565657;" d="M288.383,477.508c-0.227,0-0.418-0.071-0.577-0.209c-0.162-0.139-0.242-0.333-0.242-0.585
				c0-0.23,0.082-0.419,0.248-0.569c0.164-0.147,0.354-0.222,0.571-0.222c0.212,0,0.397,0.067,0.559,0.2
				c0.162,0.137,0.244,0.334,0.244,0.591c0,0.25-0.079,0.444-0.236,0.585C288.79,477.436,288.602,477.508,288.383,477.508
				 M289.185,479.182v4.689c0,0.322-0.077,0.568-0.231,0.732c-0.156,0.168-0.35,0.25-0.588,0.25c-0.238,0-0.428-0.084-0.58-0.254
				c-0.146-0.173-0.222-0.416-0.222-0.729v-4.642c0-0.319,0.076-0.559,0.222-0.721c0.152-0.165,0.342-0.245,0.58-0.245
				c0.238,0,0.432,0.079,0.588,0.245C289.108,478.669,289.185,478.896,289.185,479.182"/>
			<path style="fill:#565657;" d="M294.41,484.113l-1.428-2.354l-0.88,0.83v1.291c0,0.312-0.083,0.551-0.248,0.718
				c-0.16,0.17-0.354,0.254-0.566,0.254c-0.249,0-0.447-0.082-0.588-0.25c-0.142-0.165-0.215-0.41-0.215-0.734v-6.915
				c0-0.358,0.071-0.632,0.207-0.821c0.139-0.19,0.341-0.283,0.596-0.283c0.25,0,0.446,0.085,0.593,0.257
				c0.147,0.169,0.221,0.421,0.221,0.751v3.933l1.823-1.914c0.227-0.235,0.396-0.4,0.517-0.486c0.118-0.087,0.262-0.13,0.431-0.13
				c0.204,0,0.371,0.065,0.51,0.193c0.132,0.129,0.2,0.291,0.2,0.483c0,0.237-0.221,0.555-0.659,0.951l-0.861,0.789l1.662,2.614
				c0.121,0.196,0.212,0.34,0.265,0.441c0.053,0.099,0.081,0.2,0.081,0.289c0,0.258-0.071,0.459-0.213,0.61
				c-0.14,0.148-0.327,0.221-0.554,0.221c-0.198,0-0.352-0.051-0.458-0.16C294.739,484.585,294.591,484.391,294.41,484.113"/>
			<path style="fill:#565657;" d="M297.932,484.853c-0.245,0-0.455-0.079-0.634-0.238c-0.178-0.156-0.268-0.379-0.268-0.665
				c0-0.241,0.086-0.449,0.256-0.622c0.172-0.174,0.38-0.262,0.63-0.262c0.248,0,0.459,0.087,0.639,0.258
				c0.174,0.172,0.264,0.383,0.264,0.626c0,0.283-0.089,0.505-0.264,0.662C298.376,484.775,298.169,484.853,297.932,484.853"/>
			<path style="fill:#565657;" d="M305.993,482.847c0,0.2-0.06,0.418-0.182,0.646c-0.12,0.231-0.305,0.449-0.553,0.656
				c-0.247,0.207-0.557,0.377-0.934,0.502c-0.375,0.126-0.8,0.192-1.269,0.192c-1.004,0-1.786-0.293-2.349-0.876
				c-0.56-0.585-0.841-1.368-0.841-2.35c0-0.667,0.128-1.254,0.387-1.765c0.255-0.509,0.628-0.905,1.113-1.184
				c0.487-0.28,1.072-0.419,1.746-0.419c0.421,0,0.805,0.061,1.158,0.184c0.35,0.122,0.645,0.282,0.891,0.474
				c0.242,0.197,0.428,0.402,0.556,0.62c0.129,0.22,0.192,0.426,0.192,0.617c0,0.192-0.071,0.357-0.214,0.492
				c-0.147,0.134-0.322,0.203-0.524,0.203c-0.137,0-0.249-0.035-0.338-0.104c-0.09-0.07-0.19-0.181-0.299-0.339
				c-0.198-0.299-0.404-0.526-0.622-0.674c-0.214-0.152-0.488-0.226-0.821-0.226c-0.476,0-0.865,0.186-1.159,0.561
				c-0.292,0.372-0.439,0.887-0.439,1.534c0,0.305,0.039,0.587,0.114,0.842c0.073,0.255,0.182,0.472,0.325,0.652
				c0.144,0.179,0.315,0.316,0.516,0.409c0.203,0.096,0.425,0.141,0.665,0.141c0.326,0,0.604-0.075,0.836-0.225
				c0.235-0.151,0.439-0.38,0.616-0.689c0.099-0.182,0.205-0.324,0.318-0.427c0.114-0.102,0.256-0.156,0.422-0.156
				c0.198,0,0.363,0.077,0.491,0.227C305.927,482.516,305.993,482.678,305.993,482.847"/>
			<path style="fill:#565657;" d="M312.988,481.559c0,0.481-0.076,0.928-0.222,1.337c-0.154,0.408-0.37,0.758-0.656,1.049
				c-0.284,0.293-0.626,0.518-1.02,0.675c-0.4,0.154-0.844,0.234-1.337,0.234c-0.491,0-0.933-0.08-1.326-0.239
				c-0.389-0.156-0.732-0.384-1.016-0.676c-0.288-0.298-0.505-0.646-0.657-1.048c-0.143-0.402-0.219-0.846-0.219-1.332
				c0-0.491,0.077-0.941,0.224-1.349c0.151-0.409,0.368-0.757,0.649-1.046c0.282-0.289,0.621-0.511,1.019-0.669
				c0.402-0.156,0.844-0.234,1.326-0.234c0.49,0,0.936,0.078,1.337,0.239c0.399,0.157,0.739,0.384,1.027,0.674
				c0.286,0.297,0.502,0.643,0.65,1.045C312.913,480.627,312.988,481.07,312.988,481.559 M311.36,481.559
				c0-0.662-0.146-1.176-0.436-1.543c-0.289-0.372-0.681-0.555-1.171-0.555c-0.317,0-0.597,0.082-0.839,0.246
				c-0.242,0.163-0.425,0.406-0.556,0.728c-0.131,0.321-0.197,0.696-0.197,1.124c0,0.424,0.064,0.792,0.193,1.108
				c0.13,0.319,0.314,0.561,0.553,0.729c0.241,0.167,0.522,0.253,0.845,0.253c0.49,0,0.882-0.185,1.171-0.557
				C311.214,482.723,311.36,482.21,311.36,481.559"/>
			<path style="fill:#565657;" d="M319.17,481.678v2.154c0,0.342-0.075,0.595-0.231,0.767c-0.156,0.17-0.357,0.255-0.611,0.255
				c-0.245,0-0.446-0.085-0.595-0.255c-0.154-0.173-0.232-0.425-0.232-0.767v-2.582c0-0.408-0.013-0.726-0.04-0.953
				c-0.029-0.221-0.105-0.41-0.226-0.552c-0.123-0.147-0.318-0.22-0.582-0.22c-0.532,0-0.879,0.181-1.048,0.551
				c-0.167,0.36-0.254,0.883-0.254,1.567v2.189c0,0.336-0.076,0.591-0.226,0.765c-0.156,0.171-0.355,0.258-0.603,0.258
				c-0.247,0-0.448-0.087-0.604-0.258c-0.157-0.173-0.235-0.428-0.235-0.765v-4.637c0-0.306,0.07-0.538,0.209-0.694
				c0.143-0.161,0.329-0.239,0.556-0.239c0.223,0,0.407,0.077,0.557,0.222c0.148,0.149,0.222,0.354,0.222,0.615v0.153
				c0.283-0.334,0.584-0.582,0.903-0.738c0.323-0.162,0.676-0.241,1.071-0.241c0.407,0,0.757,0.082,1.049,0.244
				c0.294,0.163,0.533,0.41,0.725,0.735c0.275-0.33,0.568-0.577,0.881-0.738c0.313-0.16,0.658-0.241,1.039-0.241
				c0.441,0,0.826,0.089,1.146,0.262c0.319,0.174,0.558,0.425,0.717,0.747c0.138,0.295,0.206,0.756,0.206,1.385v3.164
				c0,0.342-0.076,0.595-0.229,0.767c-0.154,0.17-0.359,0.255-0.612,0.255c-0.247,0-0.446-0.087-0.603-0.258
				c-0.156-0.173-0.235-0.428-0.235-0.765v-2.726c0-0.349-0.015-0.627-0.043-0.836c-0.029-0.211-0.11-0.388-0.239-0.529
				c-0.133-0.142-0.332-0.215-0.596-0.215c-0.214,0-0.416,0.066-0.609,0.192c-0.192,0.124-0.342,0.298-0.45,0.508
				C319.231,480.5,319.17,480.984,319.17,481.678"/>
		</g>
		<g>
			<path style="fill:#565657;" d="M243.729,481.167c-0.001-0.003-0.001-0.006-0.001-0.011
				C243.728,481.161,243.728,481.164,243.729,481.167z"/>
			<path style="fill:#565657;" d="M243.811,481.685c0.001,0,0.001,0,0.001,0c-0.031-0.148-0.055-0.294-0.074-0.439
				C243.758,481.392,243.782,481.539,243.811,481.685z"/>
			<path style="fill:#565657;" d="M244.348,483.189c-0.004-0.006-0.007-0.013-0.011-0.021
				C244.341,483.175,244.344,483.183,244.348,483.189z"/>
			<path style="fill:#565657;" d="M244.296,483.089c-0.014-0.027-0.027-0.056-0.041-0.084
				C244.269,483.034,244.282,483.061,244.296,483.089z"/>
			<path style="fill:#565657;" d="M243.962,482.264c0.079,0.25,0.175,0.493,0.286,0.724c-0.113-0.236-0.206-0.479-0.283-0.724
				C243.964,482.264,243.963,482.264,243.962,482.264z"/>
			<path style="fill:#565657;" d="M250.003,474.956c0.313,0,0.544,0.025,0.809,0.069l0.075-0.477c0,0-0.732-0.225-1.694-0.146
				l-0.076-0.259c0.299-0.063,0.524-0.329,0.524-0.646c0-0.364-0.296-0.659-0.661-0.659c-0.364,0-0.66,0.295-0.66,0.659
				c0,0.317,0.224,0.584,0.522,0.646l0.084,0.289c-1.021,0.14-1.834,0.539-1.834,0.539l0.144,0.441
				c0.618-0.206,1.154-0.331,1.64-0.383C249.353,474.978,249.711,474.956,250.003,474.956z"/>
			<path style="fill:#565657;" d="M244.335,477.368l0.004-0.005c0.024-0.031,0.047-0.06,0.071-0.089l-0.196-0.141l-0.305-0.223
				c-0.017,0.024-0.497,0.465-0.876,1.28c-0.016-0.026-0.035-0.051-0.056-0.074c-0.113-0.124-0.272-0.187-0.474-0.184
				c-0.003,0-0.006,0-0.009,0c-0.125,0-0.211-0.042-0.267-0.092c0.056-0.071,0.089-0.16,0.089-0.258c0-0.23-0.187-0.418-0.418-0.418
				c-0.23,0-0.418,0.188-0.418,0.418c0,0.231,0.187,0.418,0.418,0.418c0.036,0,0.071-0.006,0.104-0.013
				c0.103,0.114,0.266,0.214,0.505,0.209c0.123-0.001,0.213,0.03,0.273,0.097c0.069,0.076,0.093,0.185,0.1,0.267
				c-0.001,0.001-0.001,0.003-0.002,0.003c-0.272,0.743-0.194,1.669-0.194,1.669l0.661,0.026c0.014-0.337,0.062-0.927,0.232-1.394
				C243.907,477.958,244.319,477.392,244.335,477.368z"/>
			<path style="fill:#565657;" d="M255.753,475.509c-0.23,0-0.418,0.187-0.418,0.418c0,0.036,0.006,0.07,0.015,0.103
				c-0.115,0.104-0.214,0.267-0.211,0.507c0.002,0.123-0.03,0.212-0.096,0.273c-0.053,0.047-0.12,0.072-0.185,0.088
				c-0.492-0.689-1.098-1.11-1.098-1.11l-0.474,0.508c0.358,0.326,0.725,0.734,1.08,1.244c0.246,0.352,0.499,0.806,0.71,1.259
				l0.64-0.304c0,0-0.292-0.722-0.704-1.37c0.071-0.025,0.143-0.064,0.207-0.12c0.125-0.113,0.187-0.273,0.183-0.474
				c-0.001-0.13,0.041-0.218,0.093-0.276c0.071,0.054,0.16,0.089,0.258,0.089c0.232,0,0.419-0.187,0.419-0.418
				C256.171,475.695,255.984,475.509,255.753,475.509z"/>
			<path style="fill:#565657;" d="M254.092,481.26c-0.881,0.429-2.33,0.996-4.238,1.262c-0.749,0.104-1.475,0.142-2.143,0.142
				c-0.869,0-1.637-0.065-2.227-0.139c-0.673-0.085-1.198-0.189-1.52-0.261c0.077,0.245,0.171,0.488,0.283,0.724
				c0.002,0.006,0.005,0.013,0.008,0.017c0.013,0.027,0.027,0.056,0.041,0.084c0.013,0.027,0.027,0.054,0.04,0.079
				c0.004,0.007,0.007,0.015,0.011,0.021c0.189,0.356,0.417,0.684,0.675,0.968c0.9,0.984,1.817,1.14,1.826,1.141l0.014,0.002
				l0.013,0.005c0.008,0.003,0.821,0.266,2.057,0.266c1.216,0,2.409-0.245,3.546-0.729c0.842-0.431,1.639-1.085,2.034-1.669
				c0.305-0.452,0.526-0.933,0.656-1.434c0.069-0.266,0.124-0.692,0.092-1.141C255.014,480.764,254.622,481.002,254.092,481.26z"/>
			<path style="fill:#565657;" d="M244.618,477.577c-0.026,0.037-0.408,0.578-0.709,1.408c-0.226,0.622-0.216,1.527-0.216,1.538
				v0.002c0,0.212,0.012,0.423,0.035,0.632c0,0.005,0,0.008,0.001,0.011c0.002,0.027,0.007,0.052,0.009,0.079
				c0.019,0.145,0.043,0.291,0.074,0.439c0.438,0.111,3.049,0.72,5.968,0.314c1.829-0.255,3.218-0.795,4.062-1.204
				c0.701-0.34,1.151-0.648,1.325-0.774c-0.173-0.643-0.651-1.65-1.089-2.279c-1.253-1.791-2.604-2.25-3.298-2.365
				c-0.265-0.043-0.477-0.068-0.777-0.068c-0.28,0-0.626,0.022-1.089,0.071c-0.465,0.048-0.982,0.17-1.583,0.372
				c-0.842,0.282-1.605,0.724-2.204,1.28l-0.02,0.019C245.017,477.133,244.832,477.305,244.618,477.577z M252.287,477.16
				c0.601,0,1.089,0.488,1.089,1.089c0,0.601-0.489,1.09-1.089,1.09c-0.601,0-1.089-0.489-1.089-1.09
				C251.198,477.648,251.686,477.16,252.287,477.16z M247.136,477.116c0.973,0,1.761,0.789,1.761,1.761
				c0,0.972-0.788,1.759-1.761,1.759c-0.972,0-1.76-0.787-1.76-1.759C245.376,477.905,246.164,477.116,247.136,477.116z"/>
		</g>
	</g>
</g>
</svg>
